<?xml version="1.0" standalone="no"?>
<!DOCTYPE svg PUBLIC "-//W3C//DTD SVG 20010904//EN"
 "http://www.w3.org/TR/2001/REC-SVG-20010904/DTD/svg10.dtd">
<svg version="1.0" xmlns="http://www.w3.org/2000/svg"
 width="2302.000000pt" height="2302.000000pt" viewBox="0 0 2302.000000 2302.000000"
 preserveAspectRatio="xMidYMid meet">

<g transform="translate(0.000000,2302.000000) scale(0.100000,-0.100000)"
fill="#000000" stroke="none">
<path d="M11001 23009 c-2294 -99 -4486 -876 -6341 -2248 -789 -583 -1538
-1306 -2155 -2080 -1628 -2043 -2505 -4554 -2505 -7171 0 -2875 1057 -5610
2993 -7745 160 -176 548 -565 732 -734 2138 -1960 4890 -3031 7785 -3031 2895
0 5647 1071 7785 3031 184 169 572 558 732 734 1936 2135 2993 4870 2993 7745
0 2875 -1057 5610 -2993 7745 -160 176 -548 565 -732 734 -2150 1970 -4922
3043 -7825 3029 -162 0 -373 -4 -469 -9z m1009 -389 c1584 -76 3072 -461 4465
-1157 1739 -869 3221 -2180 4300 -3803 807 -1214 1354 -2536 1640 -3965 320
-1599 282 -3287 -110 -4864 -523 -2105 -1649 -4009 -3240 -5481 -1377 -1274
-3045 -2178 -4850 -2629 -2444 -610 -5036 -374 -7315 666 -1888 862 -3503
2240 -4655 3973 -807 1214 -1354 2536 -1640 3965 -320 1599 -282 3287 110
4864 523 2105 1649 4009 3240 5481 1854 1715 4200 2738 6720 2930 385 29 955
38 1335 20z"/>
<path d="M11035 22214 c-1926 -100 -3665 -647 -5250 -1649 -891 -563 -1734
-1295 -2426 -2105 -1459 -1710 -2338 -3816 -2523 -6050 -49 -586 -49 -1214 0
-1800 185 -2234 1064 -4340 2523 -6050 350 -409 792 -851 1201 -1201 1638
-1398 3649 -2267 5780 -2498 438 -47 611 -56 1170 -56 559 0 732 9 1170 56
2131 231 4142 1100 5780 2498 409 350 851 792 1201 1201 1459 1710 2338 3816
2523 6050 49 586 49 1214 0 1800 -185 2234 -1064 4340 -2523 6050 -350 409
-792 851 -1201 1201 -1639 1399 -3655 2270 -5785 2498 -400 43 -578 53 -1080
55 -269 2 -521 2 -560 0z m364 -854 c35 -11 116 -30 180 -42 154 -29 475 -32
620 -4 51 9 95 16 96 14 2 -2 -25 -60 -59 -130 -108 -220 -165 -414 -187 -640
-23 -243 30 -519 146 -759 l17 -36 -89 -179 c-92 -185 -158 -363 -190 -514
-19 -92 -25 -380 -10 -497 l8 -61 -63 18 c-221 66 -467 83 -583 41 -33 -11
-64 -22 -69 -24 -5 -1 -96 259 -202 578 l-192 580 -17 -60 c-305 -1057 -342
-1180 -355 -1177 -8 2 -59 6 -115 9 -119 7 -211 -6 -339 -47 -51 -17 -95 -30
-97 -30 -2 0 -5 60 -6 133 -7 401 -140 727 -416 1014 l-109 113 31 74 c77 185
112 405 93 579 -31 277 -134 503 -355 772 l-25 30 237 0 c207 1 249 4 341 23
123 27 262 73 343 113 31 16 57 27 57 25 0 -2 -16 -59 -35 -127 -59 -204 -79
-332 -79 -514 0 -114 5 -186 17 -248 42 -209 139 -399 284 -556 l59 -65 62 80
c146 186 264 509 338 929 14 82 19 95 25 70 3 -16 19 -84 34 -150 56 -244 151
-486 246 -626 81 -120 246 -270 283 -256 21 8 134 238 171 349 116 349 74 702
-135 1118 -30 60 -45 100 -38 100 7 0 42 -9 77 -20z m2235 -329 c209 -107 419
-176 616 -201 47 -6 157 -12 244 -13 l159 -2 19 -70 c40 -145 138 -318 227
-398 32 -28 96 -74 159 -113 2 -2 -15 -33 -37 -71 -117 -197 -144 -398 -92
-670 l18 -92 -45 -63 c-91 -131 -171 -319 -203 -483 -9 -43 -14 -135 -14 -236
l0 -166 -68 -17 c-190 -49 -360 -182 -500 -391 -22 -33 -41 -61 -42 -63 -1 -1
-44 28 -95 67 -222 166 -477 272 -790 328 -84 14 -157 18 -363 18 l-258 0 6
30 c38 186 -3 321 -176 581 l-90 135 80 85 c146 154 221 350 243 634 l11 145
47 50 c144 156 216 338 227 575 l6 125 129 32 c213 52 339 125 414 242 22 33
42 60 46 60 4 1 59 -26 122 -58z m-5344 -477 c50 -184 132 -295 299 -404 l22
-15 -97 -165 c-350 -595 -360 -755 -46 -790 94 -10 339 0 482 20 130 19 121
24 164 -92 119 -325 272 -549 471 -694 l27 -20 -93 -23 c-183 -45 -358 -124
-553 -252 -60 -38 -112 -67 -116 -62 -4 4 -21 49 -39 98 -52 142 -163 362
-232 458 -177 249 -393 369 -634 353 -78 -5 -227 -35 -241 -49 -10 -9 89 -266
150 -387 34 -69 89 -165 121 -215 105 -157 288 -330 424 -400 l35 -17 -90 -23
c-216 -55 -355 -127 -485 -252 l-67 -64 -12 53 c-62 260 -221 594 -389 813
-60 79 -230 254 -296 305 l-52 40 -12 93 c-37 273 -114 492 -240 682 -92 139
-318 348 -476 440 -25 15 -44 29 -42 31 2 2 46 15 98 28 265 69 483 181 631
324 38 36 68 59 68 51 0 -8 9 -77 21 -154 70 -480 196 -773 402 -937 27 -21
59 -38 72 -38 13 0 64 21 114 46 156 77 262 207 307 374 27 100 23 269 -10
393 -43 165 -156 375 -282 523 l-35 42 48 6 c161 23 339 93 468 183 l70 48 13
-140 c6 -77 21 -172 32 -211z m8304 -616 c57 -87 162 -185 265 -248 49 -30 89
-60 87 -65 -2 -6 -29 -46 -60 -89 -288 -402 -371 -829 -244 -1260 l20 -70 41
66 c240 377 624 968 630 968 4 0 40 -27 80 -61 146 -123 366 -253 504 -296 29
-9 53 -19 52 -22 0 -3 -32 -31 -71 -61 -323 -251 -589 -621 -723 -1008 -34
-95 -43 -111 -84 -147 -104 -89 -298 -286 -374 -380 -166 -206 -299 -438 -376
-659 l-38 -108 -45 58 c-130 168 -351 330 -541 398 -17 5 -14 13 26 69 121
169 210 367 247 547 30 143 24 323 -14 453 -22 74 -90 225 -125 276 -21 32
-241 -180 -366 -354 -82 -114 -192 -335 -246 -493 l-42 -122 -32 75 c-47 107
-105 192 -183 267 -89 86 -169 138 -323 212 l-129 62 72 35 c410 196 712 510
874 907 l43 104 98 42 c291 124 528 324 718 607 56 83 194 352 196 380 0 10 4
9 12 -5 7 -10 30 -46 51 -78z m-10882 -644 c46 -63 132 -144 192 -183 l47 -29
-107 -57 c-311 -167 -506 -348 -598 -556 l-24 -55 182 -190 183 -189 36 28
c41 31 129 129 194 214 57 76 143 247 178 351 l27 83 29 -44 c58 -88 147 -127
288 -127 l87 0 37 -187 c20 -104 40 -197 43 -208 4 -18 -6 -23 -108 -47 -337
-81 -519 -281 -486 -532 18 -130 93 -233 215 -293 69 -34 82 -37 162 -37 64 0
103 5 153 23 178 60 367 240 519 492 27 46 53 82 57 81 4 -2 98 -110 209 -240
187 -219 200 -238 180 -246 -77 -29 -215 -106 -294 -162 -406 -291 -824 -755
-988 -1098 -48 -100 -53 -106 -59 -80 -14 54 -94 249 -139 339 -160 318 -420
594 -712 755 -72 40 -72 40 -85 97 -34 153 -129 365 -231 513 -138 201 -333
381 -560 518 -43 26 -78 49 -78 52 0 3 46 30 102 60 430 232 815 594 1117
1052 l95 143 50 -95 c28 -53 67 -118 87 -146z m13128 -1428 c0 -39 48 -183 91
-273 92 -194 287 -432 459 -561 82 -62 210 -133 278 -153 31 -9 41 -17 38 -28
-60 -205 -68 -322 -32 -481 24 -106 25 -116 10 -125 -93 -55 -200 -135 -252
-187 -89 -89 -146 -178 -230 -363 l-73 -160 -117 -38 c-304 -98 -528 -270
-671 -516 l-40 -68 -90 44 c-224 110 -461 128 -693 53 l-87 -28 -6 47 c-26
208 -159 476 -358 720 -145 177 -357 364 -520 459 l-79 45 114 32 c433 125
746 347 988 701 l69 101 88 17 c207 41 442 145 623 274 125 89 286 252 390
395 47 64 88 116 93 116 4 1 7 -10 7 -23z m-6725 -100 c812 -88 1502 -286
2195 -632 1475 -736 2590 -2002 3136 -3561 161 -459 266 -943 321 -1476 25
-246 25 -928 0 -1174 -87 -847 -298 -1564 -676 -2298 -869 -1687 -2477 -2901
-4338 -3275 -186 -37 -422 -72 -648 -97 -245 -26 -945 -26 -1190 0 -820 88
-1508 285 -2205 633 -1475 736 -2590 2002 -3136 3561 -161 459 -266 943 -321
1476 -25 246 -25 928 0 1174 87 847 298 1564 676 2298 869 1687 2477 2901
4338 3275 252 51 583 94 863 114 145 10 842 -3 985 -18z m-8940 -1241 c275
-104 493 -163 698 -190 203 -26 359 -17 555 31 l103 25 63 -59 c261 -244 771
-408 1323 -425 l73 -2 -59 -82 c-117 -164 -187 -331 -198 -476 -7 -93 -5 -92
-162 -84 -216 11 -492 112 -653 239 -27 21 -39 26 -42 16 -58 -196 -145 -362
-265 -506 -45 -54 -49 -63 -34 -69 187 -67 344 -175 557 -383 l131 -128 -50
-54 c-165 -176 -279 -353 -345 -536 l-23 -63 -20 33 c-186 311 -398 547 -636
707 -124 84 -385 191 -466 191 -30 0 -35 8 -74 115 -159 429 -476 806 -895
1063 -54 34 -104 63 -109 65 -6 2 11 23 37 47 142 131 286 402 286 538 0 52 8
62 38 51 15 -6 90 -35 167 -64z m16775 -1431 c171 -150 283 -204 446 -212
l102 -5 6 -61 c38 -347 176 -686 388 -953 l49 -62 -60 -78 c-125 -164 -186
-339 -179 -509 l4 -91 -78 -7 c-88 -7 -227 -45 -297 -81 -75 -37 -198 -134
-285 -224 l-79 -81 -101 -5 c-288 -14 -547 -116 -758 -297 l-58 -49 -47 40
c-106 88 -240 148 -383 171 -36 5 -121 10 -190 10 l-125 0 -1 148 c-4 363
-107 682 -332 1024 -38 56 -98 139 -133 183 -36 45 -69 86 -73 93 -4 7 11 20
42 36 161 81 256 220 363 529 l34 98 30 -6 c261 -53 495 2 766 180 l100 65 67
-11 c85 -15 225 -6 322 21 93 26 235 96 315 154 33 25 62 45 65 45 3 1 39 -29
80 -65z m-17345 -151 c193 -26 352 -48 354 -50 2 -1 -17 -29 -42 -60 -75 -93
-183 -257 -221 -335 -61 -127 -81 -249 -56 -340 26 -94 130 -173 270 -205 103
-23 308 -21 459 5 l114 20 71 -65 c254 -233 614 -381 1051 -434 55 -6 101 -13
103 -14 2 -2 -13 -35 -32 -74 -76 -151 -145 -345 -197 -555 -16 -65 -30 -120
-31 -122 -2 -1 -46 25 -98 58 -222 140 -461 241 -650 274 -114 20 -304 15
-423 -11 l-78 -17 -107 104 c-116 112 -180 159 -293 213 -199 95 -373 81 -487
-39 -101 -107 -135 -218 -134 -446 0 -91 6 -190 15 -240 8 -47 13 -87 12 -88
-2 -2 -161 78 -353 179 l-349 183 61 71 c77 88 114 141 160 231 94 186 128
335 132 587 l3 178 87 92 c148 156 237 314 280 502 15 62 19 121 19 262 0 101
2 183 5 183 3 0 163 -21 355 -47z m635 -3097 l125 -386 413 0 414 0 -333 -241
c-184 -133 -335 -242 -336 -243 -1 -1 23 -76 53 -166 140 -423 201 -619 190
-613 -6 4 -152 110 -324 236 -172 125 -319 230 -326 233 -7 3 -161 -103 -342
-235 -181 -132 -329 -239 -331 -238 -1 2 55 175 123 385 69 211 124 389 121
395 -2 7 -151 118 -329 247 l-325 235 411 5 411 5 125 387 c68 212 127 385
130 383 3 -2 62 -177 130 -389z m16850 -151 l124 -385 415 -2 416 -3 -336
-243 -336 -243 128 -391 c70 -216 127 -393 126 -394 -1 0 -152 108 -334 242
l-333 244 -332 -244 c-183 -134 -334 -242 -335 -241 -2 1 26 89 62 196 35 107
93 283 128 391 l65 197 -336 243 -336 243 415 3 416 2 124 385 c68 212 127
385 130 385 3 0 61 -173 129 -385z m-15411 -2305 c54 -138 137 -287 222 -399
43 -56 64 -93 57 -95 -7 -2 -72 -13 -143 -25 -251 -41 -437 -98 -635 -192
-170 -82 -303 -173 -429 -294 l-106 -102 -130 -17 c-147 -20 -388 -79 -515
-126 -218 -80 -458 -220 -605 -351 l-70 -63 -3 50 c-8 168 -47 325 -111 452
-46 91 -142 229 -226 325 l-76 87 51 0 c142 0 394 42 545 92 240 78 490 233
669 416 l59 60 51 -5 c72 -7 288 13 403 38 276 60 547 203 788 416 l99 88 32
-125 c17 -69 50 -172 73 -230z m13444 -395 c363 -106 582 -145 828 -145 187 0
302 17 457 69 l112 38 68 -54 c129 -103 354 -201 587 -256 201 -48 330 -61
592 -61 134 -1 243 -3 243 -5 0 -2 -15 -29 -34 -60 -122 -203 -188 -406 -172
-537 l6 -53 -37 -8 c-69 -14 -283 -8 -373 11 -143 31 -337 107 -422 167 -35
25 -48 24 -48 -5 0 -90 -117 -364 -213 -497 l-54 -77 64 -17 c159 -43 394
-191 621 -391 l62 -56 -41 -46 c-118 -134 -248 -368 -300 -540 -13 -45 -26
-82 -29 -82 -3 0 -43 51 -89 113 -108 143 -337 372 -461 459 -190 134 -404
225 -586 249 l-91 12 -37 87 c-80 189 -219 392 -391 569 -181 187 -363 321
-591 437 l-121 62 49 57 c72 85 105 136 155 241 46 97 83 240 83 322 0 23 3
42 6 42 3 0 74 -20 157 -45z m-12880 -694 c34 -130 113 -269 212 -372 27 -29
44 -54 39 -58 -5 -5 -54 -45 -109 -88 -186 -148 -357 -349 -445 -522 -42 -85
-88 -221 -110 -332 -25 -119 -39 -324 -22 -318 6 2 216 177 468 387 251 211
462 385 468 388 6 2 26 -22 45 -53 96 -158 287 -372 413 -462 l48 -34 -102
-40 c-209 -82 -434 -212 -603 -350 -111 -89 -286 -273 -374 -391 -65 -85 -81
-101 -125 -119 -28 -11 -118 -54 -200 -95 -335 -168 -619 -398 -813 -657 -78
-103 -93 -118 -93 -91 0 27 -76 192 -123 268 -59 95 -159 211 -241 281 l-65
55 72 55 c99 76 273 257 329 342 66 100 114 201 144 302 24 78 27 105 28 243
1 145 -12 254 -34 290 -6 10 -20 8 -67 -10 -298 -119 -569 -339 -776 -633
l-62 -88 -8 53 c-19 139 -41 218 -82 303 -59 120 -124 203 -257 330 -102 95
-109 105 -84 105 16 0 84 11 152 25 434 88 771 292 1043 632 32 40 37 42 100
48 312 29 606 142 846 323 98 74 219 188 292 272 37 44 70 80 73 80 3 0 14
-31 23 -69z m12417 -901 c261 -263 519 -420 821 -500 l97 -25 70 -90 c128
-166 293 -334 442 -451 156 -123 381 -247 546 -301 46 -15 84 -30 84 -33 0 -3
-19 -15 -42 -27 -104 -50 -246 -182 -330 -305 -63 -93 -130 -234 -174 -362
l-38 -113 -77 116 c-249 372 -584 617 -989 725 l-85 23 -36 66 c-206 373 -527
630 -972 778 -70 23 -124 45 -120 49 4 3 41 33 81 65 199 159 353 379 422 600
12 39 23 76 26 83 2 7 41 -33 86 -90 46 -56 130 -150 188 -208z m-1410 -1024
c151 -55 363 -73 494 -42 l59 14 111 -112 c61 -62 144 -134 184 -160 39 -26
72 -49 72 -51 0 -6 -393 -356 -405 -361 -6 -3 -47 16 -90 41 -290 165 -535
161 -640 -9 -28 -46 -30 -56 -30 -145 0 -83 4 -104 26 -152 72 -152 214 -236
419 -246 277 -14 619 126 994 406 77 58 100 71 107 60 5 -8 9 -20 9 -27 0 -29
71 -185 115 -252 93 -144 217 -249 378 -320 59 -26 76 -38 71 -49 -3 -9 -17
-59 -31 -111 -46 -175 -41 -428 11 -577 l14 -39 -102 -43 c-375 -160 -630
-368 -829 -677 l-46 -72 -57 19 c-159 53 -348 64 -509 30 -49 -11 -98 -22
-107 -26 -13 -5 -19 2 -28 37 -44 162 -157 314 -302 404 l-47 29 236 160 c129
88 239 161 243 163 4 2 47 -19 94 -46 131 -75 238 -107 361 -107 93 0 105 2
167 33 159 78 234 261 180 439 -87 285 -413 385 -829 252 -199 -64 -493 -216
-684 -355 l-46 -34 -6 93 c-8 119 -28 192 -79 297 -52 107 -158 217 -261 270
-67 34 -68 36 -63 70 2 19 17 162 32 317 l27 282 61 21 c226 81 420 244 577
485 41 62 76 114 78 114 2 1 34 -10 71 -23z m-9486 -287 c208 -275 550 -503
826 -549 l75 -13 0 -166 c0 -180 6 -206 84 -370 l28 -59 -102 -104 c-162 -165
-220 -285 -290 -600 l-26 -117 -77 -41 c-122 -66 -207 -126 -296 -211 -139
-132 -228 -264 -288 -432 -28 -79 -34 -88 -52 -82 -150 42 -195 49 -331 49
-111 -1 -157 -5 -220 -23 -83 -22 -205 -76 -255 -111 -15 -11 -32 -20 -37 -20
-4 0 -17 29 -27 65 -95 333 -637 812 -1090 965 l-80 27 129 67 c331 170 591
426 748 735 35 69 75 153 87 185 21 52 28 61 64 75 146 56 325 161 446 261
196 163 378 409 485 659 l39 90 48 -97 c26 -53 77 -136 112 -183z m7931 -1027
c19 -101 54 -192 106 -273 22 -33 39 -61 39 -63 0 -2 -41 -6 -92 -10 -331 -25
-605 -122 -766 -271 l-65 -61 98 -246 98 -247 41 16 c209 80 338 164 493 319
l122 122 11 -49 c25 -103 112 -187 237 -230 55 -18 62 -24 58 -42 -3 -12 -21
-105 -40 -206 -20 -102 -37 -187 -39 -188 -2 -2 -44 3 -92 11 -232 41 -428 2
-553 -110 -203 -183 -160 -515 84 -635 160 -78 357 -58 595 61 85 43 277 168
300 195 7 8 16 15 20 15 5 0 52 -132 106 -292 53 -161 99 -298 101 -304 3 -8
-12 -10 -47 -6 -153 14 -522 -80 -855 -220 -334 -140 -620 -308 -799 -470
l-71 -65 3 175 c4 188 -7 321 -40 471 -54 251 -177 513 -338 716 -47 60 -48
60 -40 112 18 112 22 262 10 383 -29 301 -140 583 -339 860 l-68 95 61 7 c429
51 743 144 1103 327 144 73 334 188 458 277 l70 51 8 -71 c4 -39 14 -108 22
-154z m-5710 -223 c225 -107 408 -153 682 -171 l172 -11 15 -69 c20 -88 67
-206 112 -280 60 -99 132 -169 253 -245 2 -2 -12 -27 -32 -56 -54 -83 -95
-168 -119 -254 -26 -93 -31 -294 -9 -434 l13 -86 -57 -74 c-68 -89 -167 -286
-195 -389 -31 -112 -50 -252 -50 -368 0 -74 -4 -104 -12 -106 -7 -2 -44 -10
-83 -20 -185 -43 -368 -184 -514 -393 l-22 -33 -66 56 c-139 119 -329 228
-513 297 -216 81 -417 116 -701 124 l-205 6 13 61 c35 170 -12 327 -180 592
l-64 102 63 56 c167 150 268 377 296 670 l11 121 62 61 c75 75 129 155 172
254 33 78 73 249 73 317 0 21 3 54 6 74 l6 37 76 12 c245 39 399 119 493 257
l29 42 78 -46 c42 -25 131 -72 197 -104z m3486 -441 c-82 -417 -60 -779 75
-1175 l55 -163 -15 -82 c-44 -244 -54 -585 -22 -803 21 -148 74 -352 120 -468
28 -71 31 -87 18 -83 -191 59 -423 59 -648 1 -52 -14 -96 -25 -98 -25 -2 0 -6
37 -9 82 -18 250 -97 492 -220 673 -53 77 -156 180 -236 234 -71 48 -213 118
-259 127 -30 6 -30 5 -42 -51 -23 -111 -30 -182 -30 -326 0 -226 47 -460 140
-694 16 -41 30 -77 30 -80 0 -2 -42 16 -92 40 -139 67 -199 80 -363 80 -144
-1 -196 -8 -349 -51 -48 -14 -90 -23 -92 -21 -2 2 12 38 31 81 49 104 109 290
135 411 27 130 38 385 20 520 -12 100 -56 295 -84 373 l-15 43 58 122 c188
390 217 799 87 1246 -16 56 -19 81 -11 77 167 -64 324 -76 525 -40 l36 6 12
-139 c33 -380 156 -673 381 -907 93 -96 291 -253 291 -231 0 11 -140 1170
-144 1196 l-5 26 187 6 c203 6 308 23 462 75 47 16 86 28 88 27 2 -2 -6 -50
-17 -107z"/>
<path d="M13792 20439 c-160 -31 -288 -161 -323 -327 -15 -74 -7 -247 16 -335
l18 -68 -85 -87 c-92 -95 -129 -145 -177 -239 -166 -330 -38 -720 253 -774
164 -30 376 91 469 269 67 128 82 197 82 377 0 121 -5 180 -19 243 l-19 82 50
53 c250 265 302 532 134 695 -98 95 -258 139 -399 111z"/>
<path d="M18640 17004 c-143 -52 -276 -201 -347 -389 l-27 -71 -114 -22 c-355
-68 -598 -284 -642 -570 -28 -176 47 -324 198 -395 55 -26 83 -32 156 -35 112
-6 179 9 284 60 159 78 312 252 408 466 l44 97 62 13 c198 39 372 129 456 235
58 72 75 121 76 217 1 78 -2 92 -33 155 -45 91 -125 171 -215 215 -62 31 -80
35 -165 37 -70 2 -108 -1 -141 -13z"/>
<path d="M11225 17334 c-231 -17 -346 -27 -445 -40 -1693 -214 -3204 -1158
-4143 -2589 -495 -755 -806 -1608 -911 -2505 -51 -431 -51 -935 0 -1375 104
-899 429 -1779 938 -2545 847 -1273 2191 -2175 3689 -2475 424 -85 693 -110
1177 -109 389 0 518 9 835 55 972 141 1927 548 2715 1158 393 304 804 723
1101 1121 1078 1445 1426 3307 944 5047 -441 1588 -1552 2930 -3030 3658 -655
323 -1303 507 -2045 580 -145 15 -711 28 -825 19z m328 -331 c-24 -2 -62 -2
-85 0 -24 2 -5 4 42 4 47 0 66 -2 43 -4z m-235 -10 c-26 -2 -71 -2 -100 0 -29
2 -8 3 47 3 55 0 79 -1 53 -3z m490 0 c-27 -2 -69 -2 -95 0 -27 2 -5 3 47 3
52 0 74 -1 48 -3z m-685 -10 c-18 -2 -48 -2 -65 0 -18 2 -4 4 32 4 36 0 50 -2
33 -4z m845 0 c-16 -2 -40 -2 -55 0 -16 2 -3 4 27 4 30 0 43 -2 28 -4z m-965
-10 c-13 -2 -35 -2 -50 0 -16 2 -5 4 22 4 28 0 40 -2 28 -4z m1075 0 c-10 -2
-28 -2 -40 0 -13 2 -5 4 17 4 22 1 32 -1 23 -4z m-1175 -10 c-13 -2 -33 -2
-45 0 -13 2 -3 4 22 4 25 0 35 -2 23 -4z m1265 0 c-10 -2 -26 -2 -35 0 -10 3
-2 5 17 5 19 0 27 -2 18 -5z m-1413 -18 c-44 -8 -91 -13 -105 -13 -36 1 109
26 150 26 19 0 -1 -6 -45 -13z m1493 8 c-10 -2 -26 -2 -35 0 -10 3 -2 5 17 5
19 0 27 -2 18 -5z m75 -10 c-7 -2 -21 -2 -30 0 -10 3 -4 5 12 5 17 0 24 -2 18
-5z m60 -10 c-7 -2 -19 -2 -25 0 -7 3 -2 5 12 5 14 0 19 -2 13 -5z m-1770 -10
c-7 -2 -21 -2 -30 0 -10 3 -4 5 12 5 17 0 24 -2 18 -5z m1830 0 c-7 -2 -19 -2
-25 0 -7 3 -2 5 12 5 14 0 19 -2 13 -5z m-1993 -29 c-63 -13 -119 -23 -125
-21 -12 4 181 45 215 45 14 0 -27 -11 -90 -24z m2053 19 c-7 -2 -19 -2 -25 0
-7 3 -2 5 12 5 14 0 19 -2 13 -5z m54 -9 c-3 -3 -12 -4 -19 -1 -8 3 -5 6 6 6
11 1 17 -2 13 -5z m50 -10 c-3 -3 -12 -4 -19 -1 -8 3 -5 6 6 6 11 1 17 -2 13
-5z m50 -10 c-3 -3 -12 -4 -19 -1 -8 3 -5 6 6 6 11 1 17 -2 13 -5z m50 -10
c-3 -3 -12 -4 -19 -1 -8 3 -5 6 6 6 11 1 17 -2 13 -5z m-2522 -40 c-71 -18
-134 -32 -140 -30 -12 3 223 64 250 64 11 0 -38 -15 -110 -34z m2562 30 c-3
-3 -12 -4 -19 -1 -8 3 -5 6 6 6 11 1 17 -2 13 -5z m-2732 -74 c-11 -5 -27 -9
-35 -9 -9 0 -8 4 5 9 11 5 27 9 35 9 9 0 8 -4 -5 -9z m-100 -30 c-27 -10 -57
-18 -65 -18 -8 0 8 8 35 18 28 10 57 18 65 18 8 0 -7 -8 -35 -18z m-134 -41
c-30 -10 -56 -17 -58 -15 -5 5 77 34 97 34 8 1 -9 -8 -39 -19z m-72 -23 c-2
-2 -66 -27 -142 -55 -75 -29 -192 -76 -260 -106 -123 -55 -158 -68 -102 -38
101 55 532 225 504 199z m-540 -220 c-10 -9 -229 -116 -229 -111 0 6 211 114
224 114 5 1 7 -1 5 -3z m-239 -121 c0 -2 -22 -16 -50 -30 -27 -14 -50 -23 -50
-20 0 2 21 16 48 29 53 28 52 28 52 21z m-110 -60 c0 -2 -13 -11 -30 -20 -38
-19 -40 -11 -2 9 31 17 32 18 32 11z m-75 -43 c-18 -15 -85 -54 -85 -48 0 3
19 16 43 30 43 26 59 33 42 18z m-96 -57 c-13 -12 -309 -204 -309 -199 0 5
300 204 308 204 3 0 3 -2 1 -5z m-319 -209 c0 -2 -44 -36 -97 -77 -54 -40
-132 -99 -173 -132 -41 -32 -57 -42 -35 -22 35 32 296 235 303 235 1 0 2 -2 2
-4z m-350 -269 c0 -2 -15 -16 -32 -33 l-33 -29 29 33 c28 30 36 37 36 29z
m-70 -60 c0 -2 -19 -21 -42 -42 l-43 -40 40 43 c36 39 45 47 45 39z m-90 -80
c0 -1 -33 -34 -72 -72 l-73 -70 70 73 c64 67 75 77 75 69z m-250 -250 c0 -1
-28 -29 -62 -62 l-63 -60 60 63 c55 58 65 67 65 59z m-150 -160 c0 -2 -12 -14
-27 -28 l-28 -24 24 28 c23 25 31 32 31 24z m6289 -63 c116 -17 303 -75 402
-125 293 -147 512 -377 671 -705 l63 -129 7 -220 c14 -471 86 -775 318 -1334
144 -347 206 -601 226 -923 l7 -118 800 0 800 0 -6 -212 c-44 -1565 -763
-3037 -1977 -4047 -257 -215 -529 -401 -850 -583 -25 -14 -122 -65 -217 -112
-1268 -634 -2769 -747 -4120 -311 -1859 600 -3259 2135 -3682 4035 -78 347
-131 809 -131 1133 l0 97 773 0 774 0 -60 278 -60 277 57 347 c151 915 292
1428 481 1748 270 456 627 564 1157 350 l116 -47 84 84 c113 115 195 176 313
233 134 65 224 84 373 78 217 -9 390 -89 607 -281 l49 -44 70 60 c182 156 420
274 641 318 114 23 377 18 504 -10 148 -32 296 -83 453 -158 l137 -66 68 55
c147 120 317 215 485 271 77 26 242 63 308 70 92 10 263 5 359 -9z m-6359 -17
c0 -2 -10 -12 -22 -23 l-23 -19 19 23 c18 21 26 27 26 19z m-60 -71 c0 -2 -8
-10 -17 -17 -16 -13 -17 -12 -4 4 13 16 21 21 21 13z"/>
<path d="M13350 14974 c-292 -35 -537 -132 -759 -299 l-114 -87 -118 56 c-256
120 -457 174 -679 183 -332 12 -606 -87 -890 -322 l-76 -62 -63 60 c-189 177
-438 278 -648 262 -215 -16 -405 -113 -591 -303 -58 -59 -88 -83 -100 -79 -9
3 -60 23 -112 45 -251 103 -475 124 -662 62 -353 -118 -594 -539 -777 -1358
-63 -283 -191 -1012 -191 -1088 0 -16 52 -272 115 -569 64 -297 147 -717 186
-934 78 -442 79 -444 182 -557 43 -47 78 -73 135 -101 l76 -38 136 1 c125 0
142 3 235 33 129 43 289 119 437 208 l118 71 69 -88 c232 -290 479 -391 739
-304 160 55 347 196 523 396 l67 76 11 -64 c15 -84 52 -192 87 -251 64 -111
183 -207 311 -253 l61 -22 -56 -47 c-91 -76 -180 -179 -215 -250 -43 -88 -50
-188 -17 -255 64 -133 244 -226 513 -266 42 -6 157 -15 255 -20 199 -9 215
-13 387 -93 66 -31 147 -63 180 -72 89 -24 251 -29 515 -16 524 25 837 87
1233 243 l78 31 39 76 c53 107 163 270 253 378 43 50 155 165 250 254 302 286
388 379 495 540 148 221 260 543 317 909 22 142 31 513 16 666 -27 266 -85
479 -226 824 -161 395 -228 626 -276 950 -6 41 -14 176 -17 300 l-7 225 -58
120 c-88 181 -173 302 -306 436 -203 202 -409 314 -682 369 -95 20 -305 33
-379 24z m215 -255 c65 -13 214 -77 312 -135 266 -157 392 -356 393 -619 0
-44 -9 -141 -21 -215 -11 -74 -23 -169 -27 -210 l-7 -75 -62 2 c-153 4 -265
119 -332 340 -27 91 -49 108 -92 67 -16 -15 -43 -61 -60 -103 -73 -178 -152
-297 -264 -398 -108 -98 -300 -202 -342 -186 -22 9 -15 54 33 193 31 93 47
159 51 210 l6 76 -67 43 c-167 109 -256 265 -256 451 0 151 54 276 169 390
158 157 343 212 566 169z m-1759 -144 c121 -21 214 -50 304 -95 120 -61 120
-60 110 -155 -19 -167 -9 -359 25 -488 8 -32 36 -112 61 -180 39 -101 48 -137
52 -208 9 -165 -46 -353 -187 -640 -141 -286 -148 -358 -57 -590 173 -444 128
-728 -169 -1058 -60 -67 -94 -129 -95 -170 0 -47 45 -116 140 -216 106 -110
143 -165 171 -256 34 -109 19 -224 -42 -320 -39 -61 -150 -167 -228 -218 -36
-23 -99 -52 -142 -66 -109 -34 -288 -59 -380 -52 -259 20 -491 193 -575 429
-22 61 -54 288 -54 384 0 45 7 148 16 230 25 224 22 424 -10 634 -48 319 -44
467 14 642 37 109 120 276 161 322 58 67 104 38 134 -81 9 -38 26 -90 37 -118
72 -172 91 -247 96 -372 7 -189 -32 -323 -193 -663 -90 -191 -121 -277 -140
-387 -19 -109 -19 -183 0 -275 60 -287 218 -546 335 -548 39 0 73 27 161 130
166 192 206 264 179 315 -7 14 -59 53 -114 87 -156 96 -210 161 -251 303 -14
46 -16 82 -12 160 7 122 25 179 122 385 93 198 120 274 150 426 13 68 34 158
45 201 11 42 20 89 20 104 0 40 -62 156 -120 224 -191 225 -279 502 -240 754
l12 81 357 0 c307 0 360 2 379 16 31 21 28 51 -13 116 -38 60 -52 68 -128 68
-78 0 -118 30 -214 160 -63 85 -97 101 -232 111 -162 13 -161 12 -278 105
-194 154 -256 228 -256 303 0 68 120 221 238 306 110 79 245 134 388 160 100
18 316 18 423 0z m-1589 -156 c163 -79 282 -313 298 -587 4 -53 38 -297 77
-541 l71 -443 -37 -92 c-89 -225 -151 -446 -181 -640 -24 -150 -17 -407 13
-519 45 -167 54 -545 17 -736 -48 -247 -144 -435 -262 -514 -300 -200 -559
-224 -709 -65 -54 57 -77 98 -107 186 l-25 74 25 60 c77 189 114 462 93 690
-21 236 15 338 180 506 107 110 135 155 204 329 37 96 79 253 116 433 28 139
18 200 -35 200 -29 0 -68 -46 -88 -102 -85 -246 -123 -324 -187 -382 -59 -54
-118 -47 -182 21 -27 28 -28 35 -34 164 -15 304 44 434 239 535 138 71 182
102 295 209 112 106 188 204 198 254 5 25 2 37 -16 56 -34 36 -78 33 -132 -9
-128 -102 -200 -136 -291 -136 -43 0 -61 6 -94 30 -81 59 -144 182 -188 363
-48 195 -43 305 18 420 66 126 209 208 448 257 120 25 193 19 276 -21z m-1337
-139 c84 -16 154 -54 218 -117 51 -50 64 -70 92 -148 60 -166 82 -298 83 -495
2 -209 -13 -283 -73 -375 -55 -84 -71 -136 -77 -244 -7 -110 7 -201 49 -321
55 -160 69 -222 75 -345 12 -240 -57 -431 -217 -601 -101 -107 -111 -171 -55
-345 47 -146 65 -258 65 -409 0 -330 -112 -599 -228 -551 -17 7 -44 28 -61 47
-49 53 -96 41 -136 -37 -20 -38 -121 -126 -176 -155 -155 -78 -243 34 -280
356 -7 62 -9 156 -6 230 12 229 38 323 137 475 67 103 90 164 90 235 0 16 -16
111 -36 212 -31 161 -35 196 -31 288 6 115 29 205 79 304 52 102 59 136 73
321 15 204 29 254 94 339 44 56 81 89 178 154 35 24 70 56 78 72 18 35 20 81
3 98 -25 25 -98 13 -191 -29 -123 -57 -202 -64 -282 -25 -117 58 -185 195
-185 373 0 101 19 176 74 288 146 297 395 453 646 405z m4910 -993 c30 -13 97
-51 149 -85 108 -71 216 -111 330 -119 l74 -6 161 -164 c89 -91 182 -196 208
-234 99 -146 112 -280 44 -460 -85 -228 -81 -272 63 -676 73 -205 86 -281 85
-503 0 -214 -9 -262 -79 -406 -80 -165 -157 -246 -400 -420 -141 -101 -258
-216 -329 -325 -68 -106 -104 -185 -161 -352 -51 -150 -84 -205 -171 -286
-172 -162 -463 -235 -835 -209 -189 12 -305 4 -484 -36 -149 -33 -217 -39
-304 -26 -95 13 -152 39 -213 96 -27 25 -68 54 -92 65 -88 39 -253 35 -531
-12 -100 -17 -129 -19 -172 -9 -142 31 -135 151 14 232 92 51 367 123 578 153
199 29 530 14 608 -26 27 -15 20 -43 -24 -93 -66 -75 -81 -143 -36 -167 37
-20 101 -4 195 50 131 76 188 91 367 97 168 5 240 15 334 46 83 27 166 108
236 232 176 310 347 526 459 583 202 101 349 284 407 508 28 109 36 331 16
479 l-15 109 33 78 c63 147 88 237 89 329 1 93 -11 127 -74 205 -18 22 -43 63
-56 90 -22 47 -24 62 -24 227 0 194 -16 308 -50 364 -75 120 -182 -78 -239
-437 -6 -35 -17 -126 -26 -201 -18 -170 -33 -243 -95 -478 -76 -288 -81 -321
-78 -590 2 -216 0 -241 -20 -315 -42 -152 -110 -272 -216 -384 -234 -245 -584
-329 -827 -200 -71 38 -157 126 -193 198 -77 152 -90 365 -38 626 16 83 85
539 152 1015 147 1047 133 965 166 1007 39 51 94 71 242 87 137 16 199 29 244
52 15 8 85 64 155 125 226 196 262 212 373 166z"/>
<path d="M15239 9535 c-21 -47 -39 -89 -39 -93 1 -4 100 -82 222 -174 121 -93
214 -168 206 -168 -14 0 -480 104 -519 116 -12 3 -27 -17 -58 -82 -23 -48 -40
-91 -39 -96 3 -9 720 -348 736 -348 12 0 55 97 48 108 -2 4 -129 66 -280 137
-152 71 -274 130 -273 131 2 2 362 -82 580 -135 l38 -9 29 58 29 58 -249 187
c-138 103 -250 189 -250 191 0 5 49 -17 310 -140 l245 -115 28 55 c16 31 27
57 25 59 -7 7 -733 345 -741 345 -4 0 -26 -38 -48 -85z"/>
<path d="M7427 9396 c-202 -84 -368 -157 -369 -160 -1 -15 45 -116 53 -116 5
0 70 25 144 57 74 31 136 54 138 52 2 -2 20 -43 41 -90 49 -113 83 -153 147
-174 124 -42 304 39 353 157 29 68 25 83 -64 301 -29 70 -57 127 -64 127 -6
-1 -177 -70 -379 -154z m342 -96 c17 -43 31 -89 31 -100 0 -11 -15 -36 -33
-56 -26 -29 -42 -37 -80 -41 -61 -7 -88 11 -121 81 -53 112 -59 98 62 149 59
25 108 46 109 46 1 1 15 -35 32 -79z"/>
<path d="M7755 8704 c-176 -135 -320 -249 -320 -255 0 -13 294 -399 304 -399
12 0 101 70 101 79 0 7 -160 224 -212 288 -6 8 16 31 78 77 47 36 90 63 95 60
5 -3 50 -59 100 -124 50 -66 95 -123 100 -126 9 -5 109 62 109 73 0 4 -45 66
-100 139 l-100 134 67 50 c38 28 73 50 78 48 6 -1 54 -61 108 -133 55 -71 103
-134 107 -139 9 -9 109 62 110 77 0 10 -288 391 -298 394 -4 0 -151 -109 -327
-243z"/>
<path d="M14816 8754 c-21 -31 -36 -57 -34 -58 14 -11 680 -456 683 -456 1 0
18 24 38 54 33 50 35 55 19 69 -14 12 -621 418 -658 440 -7 4 -27 -16 -48 -49z"/>
<path d="M14486 8351 l-189 -189 43 -46 c23 -25 47 -46 54 -46 6 0 41 30 79
68 l69 67 239 -244 240 -244 50 49 49 49 -242 242 -243 243 69 69 c62 63 68
72 56 88 -23 30 -74 83 -80 83 -3 0 -90 -85 -194 -189z"/>
<path d="M8269 8063 l-273 -306 43 -39 c24 -21 47 -38 51 -38 4 0 75 75 156
167 82 92 161 181 176 198 l27 30 -18 -70 c-59 -216 -132 -507 -129 -514 2 -4
24 -26 50 -49 l46 -43 271 305 c149 168 271 309 271 314 0 5 -20 26 -45 46
l-44 37 -177 -201 c-98 -110 -179 -198 -180 -197 -2 2 31 133 73 291 l75 288
-33 35 c-64 66 -41 83 -340 -254z"/>
<path d="M13945 7904 c-27 -19 -51 -38 -53 -43 -5 -15 231 -821 240 -821 4 0
32 16 62 36 l54 35 -29 92 c-16 51 -29 93 -29 94 0 1 199 136 216 146 6 3 44
-21 84 -53 40 -33 75 -60 79 -60 11 0 111 72 111 80 0 10 -656 524 -672 527
-7 1 -35 -13 -63 -33z m238 -266 c61 -50 113 -92 115 -94 2 -1 -31 -26 -73
-54 -42 -28 -78 -50 -79 -48 -4 4 -86 276 -86 283 0 12 16 1 123 -87z"/>
<path d="M9155 7767 c-191 -63 -358 -348 -325 -554 28 -171 187 -284 383 -270
46 3 85 11 93 19 15 16 154 272 154 284 0 7 -176 106 -250 142 -3 1 -20 -26
-37 -61 l-31 -64 64 -31 c35 -18 64 -37 64 -42 0 -26 -41 -88 -62 -94 -69 -18
-178 17 -211 67 -45 69 -38 170 19 287 92 184 237 239 346 130 35 -35 38 -42
38 -97 l0 -59 62 -16 c37 -10 67 -13 72 -8 5 5 11 39 13 77 4 56 1 78 -17 121
-56 129 -241 213 -375 169z"/>
<path d="M13500 7633 c-8 -4 -34 -14 -57 -24 l-41 -18 108 -249 c124 -287 144
-344 136 -377 -6 -25 -51 -55 -82 -55 -17 0 -71 51 -90 85 -10 18 -12 18 -57
-8 -59 -35 -61 -40 -41 -79 49 -94 110 -138 193 -138 65 0 139 36 178 86 36
48 44 146 18 226 -27 80 -233 552 -242 554 -4 1 -15 0 -23 -3z"/>
<path d="M9750 7113 c-67 -208 -123 -384 -124 -392 -1 -9 16 -20 43 -28 24 -7
52 -15 61 -18 15 -5 25 16 65 137 26 79 49 144 50 146 2 2 38 -8 82 -21 130
-41 166 -43 228 -12 67 32 109 87 137 178 34 114 11 215 -61 262 -33 22 -318
125 -345 125 -7 0 -66 -164 -136 -377z m309 174 c30 -11 65 -30 78 -43 46 -46
19 -160 -45 -186 -21 -8 -44 -6 -111 11 -46 11 -86 23 -89 25 -2 3 13 55 33
116 41 124 28 117 134 77z"/>
<path d="M12717 7335 c-32 -7 -60 -15 -63 -18 -3 -2 -15 -140 -27 -306 -12
-166 -24 -301 -27 -301 -3 0 -67 124 -143 276 -95 190 -142 274 -151 271 -7
-3 -34 -8 -58 -12 -25 -4 -50 -10 -56 -14 -8 -5 49 -126 179 -382 106 -206
193 -376 195 -378 2 -2 35 1 74 8 59 11 71 16 75 34 5 26 75 782 75 815 0 12
-3 22 -7 21 -5 -1 -34 -7 -66 -14z"/>
<path d="M10580 7269 c0 -6 -25 -184 -56 -395 -31 -211 -54 -390 -51 -397 5
-12 114 -34 123 -24 2 1 12 63 23 137 34 220 28 201 59 194 88 -19 89 -20 172
-234 l55 -145 75 -12 c41 -7 78 -12 81 -10 13 4 -98 294 -129 340 -33 47 -32
57 3 57 40 0 111 55 136 106 20 40 24 65 24 135 0 77 -3 90 -28 128 -39 59
-82 75 -278 105 -186 29 -209 31 -209 15z m287 -170 c70 -14 97 -46 90 -107
-5 -45 -28 -79 -62 -92 -20 -8 -211 12 -221 23 -5 5 6 92 22 178 5 25 6 26 62
17 31 -4 81 -13 109 -19z"/>
<path d="M11592 7196 c-150 -49 -226 -187 -226 -411 1 -198 68 -341 190 -400
56 -28 191 -33 252 -10 128 50 212 202 212 390 0 202 -68 348 -193 411 -62 32
-171 41 -235 20z m140 -136 c53 -15 92 -52 119 -112 20 -45 23 -70 24 -168 0
-106 -2 -119 -28 -172 -38 -78 -75 -103 -153 -103 -51 0 -66 4 -96 27 -71 54
-107 191 -88 328 16 113 52 169 127 196 47 16 49 16 95 4z"/>
<path d="M3450 15897 c8 -7 62 -53 120 -103 190 -162 373 -357 518 -549 l22
-30 91 94 c109 112 196 241 234 346 32 88 29 95 -42 95 -119 0 -515 63 -790
126 -174 39 -172 39 -153 21z"/>
<path d="M19728 14361 c-109 -36 -226 -121 -312 -228 l-48 -59 -62 13 c-155
33 -337 26 -471 -19 -152 -50 -289 -165 -352 -296 -32 -66 -38 -89 -41 -162
-5 -116 20 -183 98 -261 237 -238 642 -165 952 170 l67 72 107 -12 c353 -38
585 87 610 327 17 164 -96 358 -255 437 -82 40 -203 48 -293 18z"/>
<path d="M18579 8311 c207 -149 417 -333 541 -475 l75 -86 45 51 c74 85 159
208 195 283 44 92 79 216 62 221 -7 2 -111 6 -232 9 -207 4 -422 24 -662 61
-57 8 -110 15 -119 15 -9 0 34 -36 95 -79z"/>
<path d="M6690 5494 c-183 -49 -306 -212 -361 -478 -10 -48 -19 -89 -21 -90
-2 -1 -28 -10 -58 -20 -248 -84 -443 -260 -528 -474 -23 -60 -26 -81 -26 -192
-1 -156 19 -217 98 -296 72 -71 142 -98 261 -98 220 -1 411 131 539 376 46 87
99 240 111 319 4 25 10 50 13 56 4 6 36 23 72 38 135 56 284 162 343 243 71
97 82 128 82 232 0 85 -3 101 -29 153 -55 112 -183 209 -314 236 -69 14 -114
13 -182 -5z"/>
<path d="M8965 4320 c-273 -44 -403 -286 -339 -632 l16 -88 -33 -27 c-66 -52
-157 -153 -207 -227 -81 -122 -122 -250 -122 -386 0 -154 51 -282 147 -370 95
-87 220 -112 352 -71 167 52 311 216 366 416 25 91 31 309 11 424 l-16 93 89
94 c146 153 213 286 213 424 1 117 -44 201 -141 271 -89 64 -228 96 -336 79z"/>
</g>
</svg>
